<svg xmlns="http://www.w3.org/2000/svg" viewBox="0 0 115.04 115.04"><defs><style>.cls-1{fill:#132f43;}.cls-2{fill:#faaa4f;}</style></defs><title>Asset 2</title><g id="Layer_2" data-name="Layer 2"><g id="Layer_1-2" data-name="Layer 1"><rect class="cls-1" width="115.04" height="115.04" rx="20.64"/><path class="cls-2" d="M45,75.88H25.12a9.93,9.93,0,0,1,19.85,0Z"/><path class="cls-2" d="M90.92,75.88H71.07a9.93,9.93,0,0,1,19.85,0Z"/><path class="cls-2" d="M99,73.48a3.85,3.85,0,0,1-6.09-1.63,12.59,12.59,0,0,0-24.14,1,3.86,3.86,0,0,1-3.71,3H51a3.86,3.86,0,0,1-3.71-3A12.59,12.59,0,0,0,23,72.25a3.79,3.79,0,0,1-5.56,2.21,10.33,10.33,0,0,1-4.66-11.83A46.67,46.67,0,0,1,84.59,37.89a1.65,1.65,0,0,1-1,3h-12A3.69,3.69,0,0,0,68,44.57v1.81a3.68,3.68,0,0,0,3.68,3.68H88.36a13.37,13.37,0,0,1,12.39,8.24c.57,1.41,1.08,2.86,1.52,4.33A10.39,10.39,0,0,1,99,73.48Z"/><path class="cls-2" d="M90.74,77.82A9.93,9.93,0,1,1,79,66.15,9.92,9.92,0,0,1,90.74,77.82Z"/><path class="cls-2" d="M45,75.88A9.93,9.93,0,1,1,35,66,9.95,9.95,0,0,1,45,75.88Z"/></g></g></svg>